<svg width="16" height="17" viewBox="0 0 16 17" fill="none" xmlns="http://www.w3.org/2000/svg">
<g clip-path="url(#clip0_1132_72)">
<path d="M8.62687 8.16563L12.3113 4.44304C12.3841 4.35714 12.4222 4.24664 12.4179 4.13363C12.4135 4.02061 12.3672 3.91341 12.288 3.83344C12.2089 3.75346 12.1028 3.70661 11.9909 3.70225C11.879 3.69788 11.7697 3.73633 11.6846 3.80989L8.00021 7.53248L4.31576 3.8054C4.23207 3.72084 4.11856 3.67334 4.00021 3.67334C3.88185 3.67334 3.76834 3.72084 3.68465 3.8054C3.60096 3.88996 3.55394 4.00464 3.55394 4.12422C3.55394 4.2438 3.60096 4.35849 3.68465 4.44304L7.37354 8.16563L3.68465 11.8882C3.63812 11.9285 3.60034 11.978 3.57366 12.0337C3.54698 12.0894 3.53199 12.1501 3.52963 12.212C3.52726 12.2738 3.53758 12.3355 3.55992 12.3931C3.58227 12.4507 3.61616 12.503 3.65947 12.5468C3.70278 12.5906 3.75458 12.6248 3.81162 12.6474C3.86865 12.67 3.92969 12.6804 3.9909 12.678C4.0521 12.6756 4.11216 12.6605 4.1673 12.6335C4.22244 12.6066 4.27147 12.5684 4.31132 12.5214L8.00021 8.79878L11.6846 12.5214C11.7697 12.5949 11.879 12.6334 11.9909 12.629C12.1028 12.6246 12.2089 12.5778 12.288 12.4978C12.3672 12.4179 12.4135 12.3106 12.4179 12.1976C12.4222 12.0846 12.3841 11.9741 12.3113 11.8882L8.62687 8.16563Z" fill="#131313"/>
</g>
<defs>
<clipPath id="clip0_1132_72">
<rect width="16" height="16.1656" fill="white" transform="translate(0 0.0827637)"/>
</clipPath>
</defs>
</svg>
