<svg width="20" height="20" viewBox="0 0 20 20" fill="none" xmlns="http://www.w3.org/2000/svg">
<path d="M10.0016 0.588135C4.83215 0.588135 0.589844 4.83044 0.589844 9.9999C0.589844 14.4112 3.68526 18.4184 7.79573 19.4117V16.2979C7.38844 16.387 7.01361 16.3896 6.59901 16.2674C6.0428 16.1033 5.59085 15.7328 5.25537 15.1678C5.04153 14.807 4.66254 14.4158 4.26718 14.4446L4.17024 13.3459C5.02516 13.2727 5.76476 13.8668 6.20379 14.6044C6.39881 14.9324 6.62328 15.1247 6.91136 15.2097C7.18983 15.2917 7.48883 15.2524 7.83723 15.1293C7.92469 14.4318 8.24423 14.1707 8.48564 13.803V13.8025C6.03418 13.4368 5.05719 12.1363 4.66943 11.1097C4.15559 9.74671 4.43132 8.0439 5.33996 6.96782C5.35762 6.94685 5.3895 6.89199 5.37715 6.85364C4.96054 5.59517 5.4682 4.55413 5.48687 4.44369C5.96769 4.58587 6.04581 4.30065 7.57542 5.22997L7.83981 5.3888C7.9504 5.45472 7.91564 5.41709 8.02622 5.40876C8.66487 5.23528 9.33812 5.13949 10.0015 5.13087C10.6698 5.13949 11.3388 5.23528 12.0038 5.4158L12.0894 5.42442C12.082 5.42327 12.1127 5.41896 12.1643 5.38823C14.075 4.23086 14.0064 4.60913 14.5188 4.44254C14.5373 4.55312 15.0382 5.61111 14.6261 6.85364C14.5705 7.02483 16.2826 8.59264 15.3336 11.1093C14.9459 12.1363 13.969 13.4368 11.5176 13.8025V13.803C11.8318 14.282 12.2094 14.5367 12.2073 15.5248V19.4117C16.318 18.4184 19.4132 14.4112 19.4132 9.9999C19.4134 4.83044 15.1711 0.588135 10.0016 0.588135V0.588135Z" fill="#FCFCFC"/>
</svg>
