<?xml version="1.0" standalone="no"?>
<!DOCTYPE svg PUBLIC "-//W3C//DTD SVG 20010904//EN"
 "http://www.w3.org/TR/2001/REC-SVG-20010904/DTD/svg10.dtd">
<svg version="1.0" xmlns="http://www.w3.org/2000/svg"
 width="72.000000pt" height="72.000000pt" viewBox="0 0 72.000000 72.000000"
 preserveAspectRatio="xMidYMid meet">
<metadata>
Created by potrace 1.14, written by Peter Selinger 2001-2017
</metadata>
<g transform="translate(0.000000,72.000000) scale(0.100000,-0.100000)"
fill="#000000" stroke="none">
<path d="M188 591 c-28 -22 -127 -209 -121 -228 2 -7 0 -21 -6 -32 -9 -15 -7
-23 7 -37 9 -10 18 -26 18 -36 3 -35 4 -38 19 -38 14 0 20 -20 30 -115 12
-110 8 -105 86 -105 38 0 70 4 70 10 1 6 2 13 3 18 1 4 6 39 11 77 5 39 9 73
11 78 1 4 2 14 3 22 0 8 8 15 16 15 15 0 16 3 19 40 0 12 8 25 16 30 18 11 20
95 3 132 -7 14 -27 37 -44 50 -69 51 -89 76 -89 107 0 36 -16 40 -52 12z m29
-17 c-12 -13 24 -64 66 -92 54 -38 76 -62 81 -93 6 -39 -9 -47 -77 -43 -113 8
-180 61 -154 121 10 23 10 23 24 3 14 -20 83 -60 103 -60 22 0 8 17 -24 28
-43 16 -68 45 -68 77 0 26 27 65 45 65 6 0 8 -3 4 -6z m-14 -233 c23 -6 66
-13 94 -14 48 -3 84 -15 55 -18 -7 -1 -16 -3 -22 -4 -5 -1 -13 -3 -16 -4 -3 0
2 -8 11 -17 31 -32 12 -39 -107 -42 l-115 -3 4 24 c4 22 9 24 79 23 40 -1 81
2 91 6 24 9 10 11 -87 13 -41 1 -86 3 -100 4 -25 2 -25 2 5 16 20 9 24 14 13
14 -18 1 -23 25 -12 55 5 14 11 11 36 -13 16 -16 48 -34 71 -40z m-11 -133
c-9 -9 -15 -9 -24 0 -9 9 -7 12 12 12 19 0 21 -3 12 -12z m80 0 c-9 -9 -15 -9
-24 0 -9 9 -7 12 12 12 19 0 21 -3 12 -12z m-36 -19 c10 -17 -13 -36 -27 -22
-12 12 -4 33 11 33 5 0 12 -5 16 -11z m40 -58 c-22 -21 -46 0 -26 24 10 12 16
13 27 3 12 -10 12 -13 -1 -27z m-80 18 c3 -6 1 -16 -4 -21 -13 -13 -45 8 -36
23 7 12 31 11 40 -2z m40 -40 c10 -17 -13 -36 -27 -22 -12 12 -4 33 11 33 5 0
12 -5 16 -11z m-50 -47 c-22 -5 -30 3 -21 18 5 8 11 7 22 -2 15 -12 14 -13 -1
-16z m94 8 c0 -5 -9 -10 -21 -10 -11 0 -17 5 -14 10 3 6 13 10 21 10 8 0 14
-4 14 -10z m-5 -40 c-8 -13 -105 -13 -105 0 0 6 25 10 56 10 34 0 53 -4 49
-10z"/>
<path d="M391 174 c-33 -14 -57 -53 -48 -78 12 -31 107 -71 107 -45 0 5 -9 9
-21 9 -22 0 -60 18 -70 33 -10 15 2 46 24 62 29 20 117 20 117 0 0 -8 -7 -16
-15 -16 -8 -1 -19 -3 -25 -4 -5 -1 -17 -3 -25 -4 -8 0 -15 -7 -15 -15 0 -14
21 -26 47 -26 8 0 21 -7 29 -15 14 -13 13 -15 -10 -15 -14 0 -26 -4 -26 -9 0
-6 12 -6 29 -1 16 4 46 5 66 0 20 -4 51 -4 69 1 29 8 34 15 38 44 5 45 -6 72
-34 81 -32 10 -88 7 -103 -6 -8 -6 -15 -7 -17 -2 -5 16 -84 20 -117 6z m240
-14 c10 -6 19 -20 19 -30 0 -17 -7 -20 -40 -20 -22 0 -40 -4 -40 -10 0 -10 18
-14 57 -10 17 1 21 -3 17 -14 -8 -22 -79 -24 -116 -5 -23 12 -23 57 -1 81 18
20 73 24 104 8z m-136 -39 c8 -13 -28 -23 -51 -14 -17 6 -17 8 6 14 36 10 38
10 45 0z"/>
<path d="M576 143 c-11 -11 -7 -20 9 -20 8 0 15 4 15 8 0 11 -16 20 -24 12z"/>
</g>
</svg>
