<svg width="21" height="21" viewBox="0 0 21 21" fill="none" xmlns="http://www.w3.org/2000/svg">
<path d="M10.5016 0.205811C4.84754 0.205811 0.20752 4.84583 0.20752 10.4999C0.20752 15.3248 3.59313 19.7077 8.08895 20.794V17.3883C7.64349 17.4859 7.23352 17.4887 6.78004 17.355C6.17169 17.1755 5.67737 16.7702 5.31044 16.1523C5.07655 15.7577 4.66203 15.3299 4.2296 15.3613L4.12358 14.1596C5.05865 14.0795 5.86759 14.7293 6.34777 15.5361C6.56108 15.8949 6.80659 16.1052 7.12168 16.1982C7.42625 16.2879 7.75328 16.2448 8.13435 16.1102C8.23001 15.3473 8.5795 15.0617 8.84354 14.6596V14.659C6.16226 14.2591 5.09368 12.8366 4.66957 11.7138C4.10755 10.223 4.40914 8.36056 5.40296 7.18359C5.42228 7.16065 5.45715 7.10065 5.44364 7.05871C4.98796 5.68226 5.54323 4.54361 5.56365 4.42282C6.08954 4.57833 6.17498 4.26638 7.848 5.28281L8.13718 5.45654C8.25812 5.52864 8.22011 5.48748 8.34106 5.47837C9.03958 5.28863 9.77595 5.18386 10.5015 5.17443C11.2325 5.18386 11.9642 5.28863 12.6916 5.48607L12.7852 5.49549C12.777 5.49424 12.8107 5.48952 12.867 5.45591C14.9569 4.19004 14.8819 4.60377 15.4423 4.42157C15.4626 4.54252 16.0104 5.69969 15.5596 7.05871C15.4988 7.24595 17.3715 8.96074 16.3335 11.7133C15.9094 12.8366 14.841 14.2591 12.1597 14.659V14.6596C12.5034 15.1835 12.9164 15.4621 12.9142 16.5428V20.794C17.4101 19.7077 20.7956 15.3248 20.7956 10.4999C20.7958 4.84583 16.1557 0.205811 10.5016 0.205811V0.205811Z" fill="#FCFCFC"/>
</svg>
